<?xml version="1.0" standalone="no"?>
<!DOCTYPE svg PUBLIC "-//W3C//DTD SVG 20010904//EN"
 "http://www.w3.org/TR/2001/REC-SVG-20010904/DTD/svg10.dtd">
<svg version="1.0" xmlns="http://www.w3.org/2000/svg"
 width="243.000000pt" height="243.000000pt" viewBox="0 0 243.000000 243.000000"
 preserveAspectRatio="xMidYMid meet">
<metadata>
Created by potrace 1.11, written by Peter Selinger 2001-2013
</metadata>
<g transform="translate(0.000000,243.000000) scale(0.100000,-0.100000)"
fill="#000000" stroke="none">
<path d="M1096 2280 c-39 -137 -41 -153 -21 -156 44 -8 201 -41 275 -58 36 -8
76 -17 90 -19 14 -3 43 -10 65 -15 34 -9 79 -19 219 -48 24 -4 41 -18 -169
138 -321 239 -403 298 -411 298 -5 0 -27 -63 -48 -140z"/>
<path d="M903 2297 c-94 -62 -174 -119 -176 -127 -3 -8 -46 -116 -96 -239 -50
-123 -90 -225 -88 -227 1 -2 29 22 62 53 144 133 313 291 352 328 40 37 46 49
82 180 22 77 39 140 38 142 -1 1 -80 -49 -174 -110z"/>
<path d="M975 2033 c-112 -104 -314 -292 -381 -356 -40 -38 -80 -74 -88 -80
-21 -16 -129 -208 -128 -227 1 -13 120 -317 407 -1040 l74 -185 73 -16 c61
-14 157 -33 338 -66 13 -2 26 -6 29 -9 6 -5 494 246 503 260 4 6 23 56 42 111
28 81 97 281 210 605 10 30 9 47 -11 120 -13 47 -37 137 -54 200 -16 63 -34
126 -39 140 -4 14 -32 114 -61 222 l-52 197 -51 11 c-28 6 -60 12 -71 15 -11
2 -74 16 -140 30 -100 22 -184 41 -316 70 -152 33 -211 45 -221 45 -7 0 -35
-21 -63 -47z m445 -624 c12 -23 20 -42 18 -44 -2 -1 -73 -36 -159 -78 l-156
-75 2 -58 c2 -33 3 -60 4 -61 0 -1 59 27 131 62 71 36 133 65 137 65 5 0 16
-18 25 -40 l17 -41 -157 -77 -157 -78 -1 -130 c-1 -71 -2 -135 -3 -141 -1 -8
-17 -13 -46 -13 l-45 0 0 365 c0 285 3 365 13 366 56 5 77 3 78 -6 1 -5 2 -29
3 -52 0 -23 3 -43 6 -46 3 -3 64 24 135 58 72 35 131 64 132 64 2 1 12 -17 23
-40z"/>
<path d="M354 1252 c0 -21 -13 -141 -19 -185 -18 -133 -20 -126 66 -351 l81
-211 141 -138 c77 -76 141 -136 143 -134 2 2 -39 111 -92 243 -52 131 -136
343 -185 469 -50 127 -97 243 -105 259 -8 16 -14 35 -14 42 0 19 -16 25 -16 6z"/>
<path d="M1963 620 l-111 -330 55 -31 c30 -17 56 -29 59 -27 4 5 18 75 29 152
3 21 7 48 10 60 2 12 6 40 9 63 3 22 7 52 10 65 3 12 8 40 11 61 3 20 7 54 10
75 3 20 8 48 11 60 3 13 7 43 10 65 3 23 9 59 14 80 4 20 5 37 1 37 -5 0 -58
-148 -118 -330z"/>
<path d="M1598 148 c-119 -62 -215 -115 -213 -119 3 -3 26 -9 53 -13 44 -6 67
1 258 75 115 44 217 84 228 88 15 6 7 14 -44 44 -34 20 -62 37 -63 37 -1 -1
-100 -51 -219 -112z"/>
</g>
</svg>
