<?xml version="1.0" encoding="UTF-8"?>
<svg width="634px" height="829px" viewBox="0 0 634 829" version="1.1" xmlns="http://www.w3.org/2000/svg" xmlns:xlink="http://www.w3.org/1999/xlink">
    <!-- Generator: Sketch 55.1 (78136) - https://sketchapp.com -->
    <title>Group</title>
    <desc>Created with Sketch.</desc>
    <g id="Page-1" stroke="none" stroke-width="1" fill="none" fill-rule="evenodd">
        <g id="Group" fill="#FFFFFF">
            <path d="M231.818216,115.717785 L273.638167,221.289069 L244.890507,193.645381 L228,150.073446 L231.818216,115.717785 L231.818216,115.717785 Z M282.019901,228.871744 L233.206083,105.644975 L244.747947,85.1175331 L298.949445,34.6127813 L379.550717,52.0982573 L402.626281,136.394797 L376.262658,212.283222 L327.08982,237.525979 L282.019901,228.871744 L282.019901,228.871744 Z M295.987348,30.5386651 L249.289139,74.051881 L269.256184,24.5686532 L304.202886,1.6155228 L295.987348,30.5386651 Z M309.859565,-1.27897692e-13 L370.732057,45.0688526 L301.334222,30.0138274 L309.859565,-1.27897692e-13 Z M405.418555,141.885242 L392.975755,220.547986 L381.281083,213.836642 L405.418555,141.885242 Z M332.863415,240.042538 L377.724157,217.050729 L390.133462,224.388091 L344.381511,242.18196 L332.863415,240.042538 Z" id="Odin-Copy"></path>
            <path d="M231.818216,408.717785 L273.638167,514.289069 L244.890507,486.645381 L228,443.073446 L231.818216,408.717785 L231.818216,408.717785 Z M282.019901,521.871744 L233.206083,398.644975 L244.747947,378.117533 L298.949445,327.612781 L379.550717,345.098257 L402.626281,429.394797 L376.262658,505.283222 L327.08982,530.525979 L282.019901,521.871744 L282.019901,521.871744 Z M295.987348,323.538665 L249.289139,367.051881 L269.256184,317.568653 L304.202886,294.615523 L295.987348,323.538665 Z M309.859565,293 L370.732057,338.068853 L301.334222,323.013827 L309.859565,293 Z M405.418555,434.885242 L392.975755,513.547986 L381.281083,506.836642 L405.418555,434.885242 Z M332.863415,533.042538 L377.724157,510.050729 L390.133462,517.388091 L344.381511,535.18196 L332.863415,533.042538 Z" id="Odin-Copy-2"></path>
            <path d="M459.818216,408.717785 L501.638167,514.289069 L472.890507,486.645381 L456,443.073446 L459.818216,408.717785 L459.818216,408.717785 Z M510.019901,521.871744 L461.206083,398.644975 L472.747947,378.117533 L526.949445,327.612781 L607.550717,345.098257 L630.626281,429.394797 L604.262658,505.283222 L555.08982,530.525979 L510.019901,521.871744 L510.019901,521.871744 Z M523.987348,323.538665 L477.289139,367.051881 L497.256184,317.568653 L532.202886,294.615523 L523.987348,323.538665 Z M537.859565,293 L598.732057,338.068853 L529.334222,323.013827 L537.859565,293 Z M633.418555,434.885242 L620.975755,513.547986 L609.281083,506.836642 L633.418555,434.885242 Z M560.863415,533.042538 L605.724157,510.050729 L618.133462,517.388091 L572.381511,535.18196 L560.863415,533.042538 Z" id="Odin-Copy-4"></path>
            <path d="M3.81821646,408.717785 L45.6381674,514.289069 L16.8905068,486.645381 L4.26325641e-14,443.073446 L3.81821646,408.717785 L3.81821646,408.717785 Z M54.0199006,521.871744 L5.20608284,398.644975 L16.747947,378.117533 L70.9494448,327.612781 L151.550717,345.098257 L174.626281,429.394797 L148.262658,505.283222 L99.0898201,530.525979 L54.0199006,521.871744 L54.0199006,521.871744 Z M67.9873484,323.538665 L21.2891388,367.051881 L41.2561837,317.568653 L76.2028858,294.615523 L67.9873484,323.538665 Z M81.8595652,293 L142.732057,338.068853 L73.3342218,323.013827 L81.8595652,293 Z M177.418555,434.885242 L164.975755,513.547986 L153.281083,506.836642 L177.418555,434.885242 Z M104.863415,533.042538 L149.724157,510.050729 L162.133462,517.388091 L116.381511,535.18196 L104.863415,533.042538 Z" id="Odin-Copy-5"></path>
            <path d="M231.818216,701.717785 L273.638167,807.289069 L244.890507,779.645381 L228,736.073446 L231.818216,701.717785 L231.818216,701.717785 Z M282.019901,814.871744 L233.206083,691.644975 L244.747947,671.117533 L298.949445,620.612781 L379.550717,638.098257 L402.626281,722.394797 L376.262658,798.283222 L327.08982,823.525979 L282.019901,814.871744 L282.019901,814.871744 Z M295.987348,616.538665 L249.289139,660.051881 L269.256184,610.568653 L304.202886,587.615523 L295.987348,616.538665 Z M309.859565,586 L370.732057,631.068853 L301.334222,616.013827 L309.859565,586 Z M405.418555,727.885242 L392.975755,806.547986 L381.281083,799.836642 L405.418555,727.885242 Z M332.863415,826.042538 L377.724157,803.050729 L390.133462,810.388091 L344.381511,828.18196 L332.863415,826.042538 Z" id="Odin-Copy-3"></path>
        </g>
    </g>
</svg>