<?xml version="1.0" encoding="UTF-8"?>
<svg width="634px" height="243px" viewBox="0 0 634 243" version="1.1" xmlns="http://www.w3.org/2000/svg" xmlns:xlink="http://www.w3.org/1999/xlink">
    <!-- Generator: Sketch 55.1 (78136) - https://sketchapp.com -->
    <title>Three Card Spread</title>
    <desc>Created with Sketch.</desc>
    <g id="Page-1" stroke="none" stroke-width="1" fill="none" fill-rule="evenodd">
        <g id="Three-Card-Spread" fill="#FFFFFF">
            <path d="M231.818216,115.717785 L273.638167,221.289069 L244.890507,193.645381 L228,150.073446 L231.818216,115.717785 L231.818216,115.717785 Z M282.019901,228.871744 L233.206083,105.644975 L244.747947,85.1175331 L298.949445,34.6127813 L379.550717,52.0982573 L402.626281,136.394797 L376.262658,212.283222 L327.08982,237.525979 L282.019901,228.871744 L282.019901,228.871744 Z M295.987348,30.5386651 L249.289139,74.051881 L269.256184,24.5686532 L304.202886,1.6155228 L295.987348,30.5386651 Z M309.859565,0 L370.732057,45.0688526 L301.334222,30.0138274 L309.859565,0 Z M405.418555,141.885242 L392.975755,220.547986 L381.281083,213.836642 L405.418555,141.885242 Z M332.863415,240.042538 L377.724157,217.050729 L390.133462,224.388091 L344.381511,242.18196 L332.863415,240.042538 Z" id="Odin-Copy-2"></path>
            <path d="M459.818216,115.717785 L501.638167,221.289069 L472.890507,193.645381 L456,150.073446 L459.818216,115.717785 L459.818216,115.717785 Z M510.019901,228.871744 L461.206083,105.644975 L472.747947,85.1175331 L526.949445,34.6127813 L607.550717,52.0982573 L630.626281,136.394797 L604.262658,212.283222 L555.08982,237.525979 L510.019901,228.871744 L510.019901,228.871744 Z M523.987348,30.5386651 L477.289139,74.051881 L497.256184,24.5686532 L532.202886,1.6155228 L523.987348,30.5386651 Z M537.859565,0 L598.732057,45.0688526 L529.334222,30.0138274 L537.859565,0 Z M633.418555,141.885242 L620.975755,220.547986 L609.281083,213.836642 L633.418555,141.885242 Z M560.863415,240.042538 L605.724157,217.050729 L618.133462,224.388091 L572.381511,242.18196 L560.863415,240.042538 Z" id="Odin-Copy-4"></path>
            <path d="M3.81821646,115.717785 L45.6381674,221.289069 L16.8905068,193.645381 L0,150.073446 L3.81821646,115.717785 L3.81821646,115.717785 Z M54.0199006,228.871744 L5.20608284,105.644975 L16.747947,85.1175331 L70.9494448,34.6127813 L151.550717,52.0982573 L174.626281,136.394797 L148.262658,212.283222 L99.0898201,237.525979 L54.0199006,228.871744 L54.0199006,228.871744 Z M67.9873484,30.5386651 L21.2891388,74.051881 L41.2561837,24.5686532 L76.2028858,1.6155228 L67.9873484,30.5386651 Z M81.8595652,0 L142.732057,45.0688526 L73.3342218,30.0138274 L81.8595652,0 Z M177.418555,141.885242 L164.975755,220.547986 L153.281083,213.836642 L177.418555,141.885242 Z M104.863415,240.042538 L149.724157,217.050729 L162.133462,224.388091 L116.381511,242.18196 L104.863415,240.042538 Z" id="Odin-Copy-5"></path>
        </g>
    </g>
</svg>